<?xml version="1.0"?>
<!-- Generated by SVGo -->
<svg width="1480" height="2085"
     xmlns="http://www.w3.org/2000/svg"
     xmlns:xlink="http://www.w3.org/1999/xlink">
<rect x="0" y="0" width="1480" height="2085" rx="5" ry="5" style="fill:#282d35" />
<circle cx="20" cy="20" r="7" style="fill:#ff5f58" />
<circle cx="43" cy="20" r="7" style="fill:#ffbd2e" />
<circle cx="66" cy="20" r="7" style="fill:#18c132" />
<g transform="translate(20,60)" >
<g style="font-family:Consolas,Ubuntu,Monaco,Menlo,'BitstreamVeraSansMono','PowerlineSymbols',monospace,Times,TimesNewRoman,serif,Roboto,sans-serif;font-weight:400;font-style:normal;font-size:20px;">
<style type="text/css">

@keyframes k {6.147%{transform:translateX(-0px)}6.149%{transform:translateX(-1480px)}7.860%{transform:translateX(-2960px)}8.205%{transform:translateX(-4440px)}8.602%{transform:translateX(-5920px)}8.928%{transform:translateX(-7400px)}9.272%{transform:translateX(-8880px)}9.605%{transform:translateX(-10360px)}9.999%{transform:translateX(-11840px)}10.362%{transform:translateX(-13320px)}10.704%{transform:translateX(-14800px)}11.036%{transform:translateX(-16280px)}11.374%{transform:translateX(-17760px)}11.706%{transform:translateX(-19240px)}12.035%{transform:translateX(-20720px)}12.371%{transform:translateX(-22200px)}12.703%{transform:translateX(-23680px)}13.042%{transform:translateX(-25160px)}13.378%{transform:translateX(-26640px)}13.709%{transform:translateX(-28120px)}14.046%{transform:translateX(-29600px)}14.049%{transform:translateX(-31080px)}14.090%{transform:translateX(-32560px)}14.093%{transform:translateX(-34040px)}14.112%{transform:translateX(-35520px)}16.773%{transform:translateX(-37000px)}17.162%{transform:translateX(-38480px)}17.562%{transform:translateX(-39960px)}17.883%{transform:translateX(-41440px)}18.200%{transform:translateX(-42920px)}18.543%{transform:translateX(-44400px)}18.872%{transform:translateX(-45880px)}19.204%{transform:translateX(-47360px)}19.541%{transform:translateX(-48840px)}19.886%{transform:translateX(-50320px)}20.207%{transform:translateX(-51800px)}20.545%{transform:translateX(-53280px)}20.882%{transform:translateX(-54760px)}21.219%{transform:translateX(-56240px)}21.647%{transform:translateX(-57720px)}22.060%{transform:translateX(-59200px)}22.476%{transform:translateX(-60680px)}22.982%{transform:translateX(-62160px)}23.322%{transform:translateX(-63640px)}23.654%{transform:translateX(-65120px)}23.658%{transform:translateX(-66600px)}23.697%{transform:translateX(-68080px)}23.701%{transform:translateX(-69560px)}23.703%{transform:translateX(-71040px)}26.405%{transform:translateX(-72520px)}26.754%{transform:translateX(-74000px)}27.077%{transform:translateX(-75480px)}27.413%{transform:translateX(-76960px)}27.748%{transform:translateX(-78440px)}28.089%{transform:translateX(-79920px)}28.420%{transform:translateX(-81400px)}28.754%{transform:translateX(-82880px)}29.094%{transform:translateX(-84360px)}29.428%{transform:translateX(-85840px)}29.766%{transform:translateX(-87320px)}30.180%{transform:translateX(-88800px)}30.600%{transform:translateX(-90280px)}31.028%{transform:translateX(-91760px)}31.450%{transform:translateX(-93240px)}31.789%{transform:translateX(-94720px)}32.115%{transform:translateX(-96200px)}32.465%{transform:translateX(-97680px)}32.785%{transform:translateX(-99160px)}33.121%{transform:translateX(-100640px)}33.126%{transform:translateX(-102120px)}33.167%{transform:translateX(-103600px)}33.169%{transform:translateX(-105080px)}33.172%{transform:translateX(-106560px)}35.888%{transform:translateX(-108040px)}36.233%{transform:translateX(-109520px)}36.637%{transform:translateX(-111000px)}36.970%{transform:translateX(-112480px)}37.302%{transform:translateX(-113960px)}37.637%{transform:translateX(-115440px)}37.981%{transform:translateX(-116920px)}38.379%{transform:translateX(-118400px)}38.719%{transform:translateX(-119880px)}39.057%{transform:translateX(-121360px)}39.477%{transform:translateX(-122840px)}39.887%{transform:translateX(-124320px)}40.301%{transform:translateX(-125800px)}40.645%{transform:translateX(-127280px)}41.052%{transform:translateX(-128760px)}41.472%{transform:translateX(-130240px)}41.811%{transform:translateX(-131720px)}42.152%{transform:translateX(-133200px)}42.488%{transform:translateX(-134680px)}42.491%{transform:translateX(-136160px)}42.538%{transform:translateX(-137640px)}42.541%{transform:translateX(-139120px)}42.545%{transform:translateX(-140600px)}45.256%{transform:translateX(-142080px)}45.593%{transform:translateX(-143560px)}45.916%{transform:translateX(-145040px)}46.255%{transform:translateX(-146520px)}46.594%{transform:translateX(-148000px)}46.920%{transform:translateX(-149480px)}47.257%{transform:translateX(-150960px)}47.596%{transform:translateX(-152440px)}48.015%{transform:translateX(-153920px)}48.427%{transform:translateX(-155400px)}48.836%{transform:translateX(-156880px)}49.164%{transform:translateX(-158360px)}49.504%{transform:translateX(-159840px)}49.834%{transform:translateX(-161320px)}50.171%{transform:translateX(-162800px)}50.509%{transform:translateX(-164280px)}50.931%{transform:translateX(-165760px)}51.347%{transform:translateX(-167240px)}51.767%{transform:translateX(-168720px)}52.176%{transform:translateX(-170200px)}52.182%{transform:translateX(-171680px)}52.216%{transform:translateX(-173160px)}52.219%{transform:translateX(-174640px)}52.221%{transform:translateX(-176120px)}55.020%{transform:translateX(-177600px)}55.371%{transform:translateX(-179080px)}55.685%{transform:translateX(-180560px)}56.017%{transform:translateX(-182040px)}56.343%{transform:translateX(-183520px)}56.682%{transform:translateX(-185000px)}57.022%{transform:translateX(-186480px)}57.354%{transform:translateX(-187960px)}57.688%{transform:translateX(-189440px)}58.023%{transform:translateX(-190920px)}58.365%{transform:translateX(-192400px)}58.697%{transform:translateX(-193880px)}59.033%{transform:translateX(-195360px)}59.361%{transform:translateX(-196840px)}59.689%{transform:translateX(-198320px)}60.026%{transform:translateX(-199800px)}60.352%{transform:translateX(-201280px)}60.688%{transform:translateX(-202760px)}61.027%{transform:translateX(-204240px)}61.356%{transform:translateX(-205720px)}61.361%{transform:translateX(-207200px)}61.397%{transform:translateX(-208680px)}61.401%{transform:translateX(-210160px)}64.119%{transform:translateX(-211640px)}64.560%{transform:translateX(-213120px)}64.954%{transform:translateX(-214600px)}65.365%{transform:translateX(-216080px)}65.707%{transform:translateX(-217560px)}66.040%{transform:translateX(-219040px)}66.375%{transform:translateX(-220520px)}66.718%{transform:translateX(-222000px)}67.050%{transform:translateX(-223480px)}67.386%{transform:translateX(-224960px)}67.727%{transform:translateX(-226440px)}68.057%{transform:translateX(-227920px)}68.063%{transform:translateX(-229400px)}68.099%{transform:translateX(-230880px)}68.107%{transform:translateX(-232360px)}70.822%{transform:translateX(-233840px)}71.154%{transform:translateX(-235320px)}71.158%{transform:translateX(-236800px)}73.921%{transform:translateX(-238280px)}74.259%{transform:translateX(-239760px)}74.262%{transform:translateX(-241240px)}77.021%{transform:translateX(-242720px)}77.363%{transform:translateX(-244200px)}77.693%{transform:translateX(-245680px)}78.028%{transform:translateX(-247160px)}78.030%{transform:translateX(-248640px)}83.380%{transform:translateX(-250120px)}83.720%{transform:translateX(-251600px)}83.724%{transform:translateX(-253080px)}86.478%{transform:translateX(-254560px)}86.814%{transform:translateX(-256040px)}86.817%{transform:translateX(-257520px)}89.591%{transform:translateX(-259000px)}89.998%{transform:translateX(-260480px)}90.004%{transform:translateX(-261960px)}95.465%{transform:translateX(-263440px)}95.873%{transform:translateX(-264920px)}95.879%{transform:translateX(-266400px)}98.653%{transform:translateX(-267880px)}98.992%{transform:translateX(-269360px)}99.323%{transform:translateX(-270840px)}99.658%{transform:translateX(-272320px)}}.a{fill:#e5e5e5}.b{fill:#6464ff}

</style>

<g transform="translate(0)">
<text x="12" y="0" class="a"  >$</text>
<text x="36" y="0" class="a"  >./conversor</text>
<text x="180" y="0" class="a"  >--help</text>
<text x="0" y="50" class="a"  >./conversor</text>
<text x="144" y="50" class="a"  >-</text>
<text x="168" y="50" class="a"  >Conversor</text>
<text x="288" y="50" class="a"  >de</text>
<text x="324" y="50" class="a"  >bases</text>
<text x="396" y="50" class="a"  >numéricas</text>
<text x="0" y="100" class="a"  >Uso:</text>
<text x="24" y="125" class="a"  >./conversor</text>
<text x="168" y="125" class="a"  >-h</text>
<text x="204" y="125" class="a"  >|</text>
<text x="228" y="125" class="a"  >--help</text>
<text x="612" y="125" class="a"  >#</text>
<text x="636" y="125" class="a"  >exibe</text>
<text x="708" y="125" class="a"  >esta</text>
<text x="768" y="125" class="a"  >mensagem</text>
<text x="876" y="125" class="a"  >de</text>
<text x="912" y="125" class="a"  >ajuda</text>
<text x="24" y="150" class="a"  >./conversor</text>
<text x="612" y="150" class="a"  >#</text>
<text x="636" y="150" class="a"  >inicia</text>
<text x="720" y="150" class="a"  >o</text>
<text x="744" y="150" class="a"  >programa</text>
<text x="852" y="150" class="a"  >em</text>
<text x="888" y="150" class="a"  >modo</text>
<text x="948" y="150" class="a"  >de</text>
<text x="984" y="150" class="a"  >REPL</text>
<text x="24" y="175" class="a"  >./conversor</text>
<text x="168" y="175" class="a"  >&lt;baseEntrada&gt;</text>
<text x="336" y="175" class="a"  >&lt;baseSaida&gt;</text>
<text x="480" y="175" class="a"  >&lt;numero&gt;</text>
<text x="612" y="175" class="a"  >#</text>
<text x="636" y="175" class="a"  >converte</text>
<text x="744" y="175" class="a"  >&lt;numero&gt;</text>
<text x="852" y="175" class="a"  >da</text>
<text x="888" y="175" class="a"  >&lt;baseEntrada&gt;</text>
<text x="1056" y="175" class="a"  >para</text>
<text x="1116" y="175" class="a"  >&lt;baseSaida&gt;</text>
<text x="0" y="225" class="a"  >Bases</text>
<text x="72" y="225" class="a"  >possíveis</text>
<text x="192" y="225" class="a"  >(pode</text>
<text x="264" y="225" class="a"  >usar</text>
<text x="324" y="225" class="a"  >número</text>
<text x="408" y="225" class="a"  >ou</text>
<text x="444" y="225" class="a"  >letra):</text>
<text x="24" y="250" class="a"  >1</text>
<text x="48" y="250" class="a"  >ou</text>
<text x="84" y="250" class="a"  >b</text>
<text x="108" y="250" class="a"  >ou</text>
<text x="144" y="250" class="a"  >B</text>
<text x="168" y="250" class="a"  >=</text>
<text x="192" y="250" class="a"  >Binário</text>
<text x="24" y="275" class="a"  >2</text>
<text x="48" y="275" class="a"  >ou</text>
<text x="84" y="275" class="a"  >o</text>
<text x="108" y="275" class="a"  >ou</text>
<text x="144" y="275" class="a"  >O</text>
<text x="168" y="275" class="a"  >=</text>
<text x="192" y="275" class="a"  >Octal</text>
<text x="24" y="300" class="a"  >3</text>
<text x="48" y="300" class="a"  >ou</text>
<text x="84" y="300" class="a"  >d</text>
<text x="108" y="300" class="a"  >ou</text>
<text x="144" y="300" class="a"  >D</text>
<text x="168" y="300" class="a"  >=</text>
<text x="192" y="300" class="a"  >Decimal</text>
<text x="24" y="325" class="a"  >4</text>
<text x="48" y="325" class="a"  >ou</text>
<text x="84" y="325" class="a"  >h</text>
<text x="108" y="325" class="a"  >ou</text>
<text x="144" y="325" class="a"  >H</text>
<text x="168" y="325" class="a"  >=</text>
<text x="192" y="325" class="a"  >Hexadecimal</text>
<text x="0" y="375" class="a"  >Exemplo:</text>
<text x="24" y="400" class="a"  >conversor</text>
<text x="144" y="400" class="a"  >4</text>
<text x="168" y="400" class="a"  >2</text>
<text x="192" y="400" class="a"  >1A3F</text>
<text x="276" y="400" class="a"  >#</text>
<text x="300" y="400" class="a"  >converte</text>
<text x="408" y="400" class="a"  >1A3F</text>
<text x="468" y="400" class="a"  >de</text>
<text x="504" y="400" class="a"  >hexadecimal</text>
<text x="648" y="400" class="a"  >para</text>
<text x="708" y="400" class="a"  >octal</text>
<text x="24" y="425" class="a"  >conversor</text>
<text x="144" y="425" class="a"  >h</text>
<text x="168" y="425" class="a"  >o</text>
<text x="192" y="425" class="a"  >1A3F</text>
<text x="276" y="425" class="a"  >#</text>
<text x="300" y="425" class="a"  >converte</text>
<text x="408" y="425" class="a"  >1A3F</text>
<text x="468" y="425" class="a"  >de</text>
<text x="504" y="425" class="a"  >hexadecimal</text>
<text x="648" y="425" class="a"  >para</text>
<text x="708" y="425" class="a"  >octal</text>
<text x="0" y="450" class="a"  >Se</text>
<text x="36" y="450" class="a"  >nenhum</text>
<text x="120" y="450" class="a"  >argumento</text>
<text x="240" y="450" class="a"  >for</text>
<text x="288" y="450" class="a"  >passado,</text>
<text x="396" y="450" class="a"  >o</text>
<text x="420" y="450" class="a"  >modo</text>
<text x="480" y="450" class="a"  >interativo</text>
<text x="612" y="450" class="a"  >será</text>
<text x="672" y="450" class="a"  >iniciado.</text>
<text x="12" y="500" class="a"  >$</text>
<text x="36" y="500" class="a"  >./conversor</text>
<text x="180" y="500" class="a"  >1</text>
<text x="204" y="500" class="a"  >3</text>
<text x="228" y="500" class="a"  >101</text>
<text x="0" y="525" class="a"  >Resultado:</text>
<text x="132" y="525" class="b"  >5</text>
<text x="12" y="550" class="a"  >$</text>
<text x="36" y="550" class="a"  >./conversor</text>
<text x="180" y="550" class="a"  >b</text>
<text x="204" y="550" class="a"  >d</text>
<text x="228" y="550" class="a"  >101</text>
<text x="0" y="575" class="a"  >Resultado:</text>
<text x="132" y="575" class="b"  >5</text>
<text x="12" y="600" class="a"  >$</text>
<text x="36" y="600" class="a"  >./conversor</text>
<text x="180" y="600" class="a"  >h</text>
<text x="204" y="600" class="a"  >d</text>
<text x="228" y="600" class="a"  >ff</text>
<text x="0" y="625" class="a"  >Resultado:</text>
<text x="132" y="625" class="b"  >255</text>
<text x="12" y="650" class="a"  >$</text>
<text x="36" y="650" class="a"  >./conversor</text>
<text x="180" y="650" class="a"  >d</text>
<text x="204" y="650" class="a"  >h</text>
<text x="228" y="650" class="a"  >255</text>
<text x="0" y="675" class="a"  >Resultado:</text>
<text x="132" y="675" class="b"  >FF</text>
<text x="12" y="700" class="a"  >$</text>
<text x="36" y="700" class="a"  >./conversor</text>
<text x="180" y="700" class="a"  >d</text>
<text x="204" y="700" class="a"  >o</text>
<text x="228" y="700" class="a"  >255</text>
<text x="0" y="725" class="a"  >Resultado:</text>
<text x="132" y="725" class="b"  >377</text>
<text x="12" y="750" class="a"  >$</text>
<text x="36" y="750" class="a"  >./conversor</text>
<text x="0" y="800" class="a"  >Escolha</text>
<text x="96" y="800" class="a"  >o</text>
<text x="120" y="800" class="a"  >sistema</text>
<text x="216" y="800" class="a"  >de</text>
<text x="252" y="800" class="a"  >base</text>
<text x="312" y="800" class="a"  >de</text>
<text x="348" y="800" class="a"  >entrada:</text>
<text x="0" y="825" class="a"  >1</text>
<text x="24" y="825" class="a"  >-</text>
<text x="48" y="825" class="a"  >Binário</text>
<text x="0" y="850" class="a"  >2</text>
<text x="24" y="850" class="a"  >-</text>
<text x="48" y="850" class="a"  >Octal</text>
<text x="0" y="875" class="a"  >3</text>
<text x="24" y="875" class="a"  >-</text>
<text x="48" y="875" class="a"  >Decimal</text>
<text x="0" y="900" class="a"  >4</text>
<text x="24" y="900" class="a"  >-</text>
<text x="48" y="900" class="a"  >Hexadecimal</text>
<text x="0" y="925" class="a"  >0</text>
<text x="24" y="925" class="a"  >-</text>
<text x="48" y="925" class="a"  >Sair</text>
<text x="0" y="950" class="a"  >Opção:</text>
<text x="84" y="950" class="a"  >1</text>
<text x="0" y="1000" class="a"  >Escolha</text>
<text x="96" y="1000" class="a"  >o</text>
<text x="120" y="1000" class="a"  >sistema</text>
<text x="216" y="1000" class="a"  >de</text>
<text x="252" y="1000" class="a"  >base</text>
<text x="312" y="1000" class="a"  >de</text>
<text x="348" y="1000" class="a"  >saída:</text>
<text x="0" y="1025" class="a"  >1</text>
<text x="24" y="1025" class="a"  >-</text>
<text x="48" y="1025" class="a"  >Binário</text>
<text x="0" y="1050" class="a"  >2</text>
<text x="24" y="1050" class="a"  >-</text>
<text x="48" y="1050" class="a"  >Octal</text>
<text x="0" y="1075" class="a"  >3</text>
<text x="24" y="1075" class="a"  >-</text>
<text x="48" y="1075" class="a"  >Decimal</text>
<text x="0" y="1100" class="a"  >4</text>
<text x="24" y="1100" class="a"  >-</text>
<text x="48" y="1100" class="a"  >Hexadecimal</text>
<text x="0" y="1125" class="a"  >0</text>
<text x="24" y="1125" class="a"  >-</text>
<text x="48" y="1125" class="a"  >Sair</text>
<text x="0" y="1150" class="a"  >Opção:</text>
<text x="84" y="1150" class="a"  >3</text>
<text x="0" y="1200" class="a"  >Digite</text>
<text x="84" y="1200" class="a"  >o</text>
<text x="108" y="1200" class="a"  >número</text>
<text x="192" y="1200" class="a"  >na</text>
<text x="228" y="1200" class="a"  >base</text>
<text x="288" y="1200" class="a"  >de</text>
<text x="324" y="1200" class="a"  >entrada:</text>
<text x="432" y="1200" class="a"  >101</text>
<text x="0" y="1225" class="a"  >Resultado:</text>
<text x="132" y="1225" class="b"  >5</text>
<text x="0" y="1275" class="a"  >Escolha</text>
<text x="96" y="1275" class="a"  >o</text>
<text x="120" y="1275" class="a"  >sistema</text>
<text x="216" y="1275" class="a"  >de</text>
<text x="252" y="1275" class="a"  >base</text>
<text x="312" y="1275" class="a"  >de</text>
<text x="348" y="1275" class="a"  >entrada:</text>
<text x="0" y="1300" class="a"  >1</text>
<text x="24" y="1300" class="a"  >-</text>
<text x="48" y="1300" class="a"  >Binário</text>
<text x="0" y="1325" class="a"  >2</text>
<text x="24" y="1325" class="a"  >-</text>
<text x="48" y="1325" class="a"  >Octal</text>
<text x="0" y="1350" class="a"  >3</text>
<text x="24" y="1350" class="a"  >-</text>
<text x="48" y="1350" class="a"  >Decimal</text>
<text x="0" y="1375" class="a"  >4</text>
<text x="24" y="1375" class="a"  >-</text>
<text x="48" y="1375" class="a"  >Hexadecimal</text>
<text x="0" y="1400" class="a"  >0</text>
<text x="24" y="1400" class="a"  >-</text>
<text x="48" y="1400" class="a"  >Sair</text>
<text x="0" y="1425" class="a"  >Opção:</text>
<text x="84" y="1425" class="a"  >d</text>
<text x="0" y="1475" class="a"  >Escolha</text>
<text x="96" y="1475" class="a"  >o</text>
<text x="120" y="1475" class="a"  >sistema</text>
<text x="216" y="1475" class="a"  >de</text>
<text x="252" y="1475" class="a"  >base</text>
<text x="312" y="1475" class="a"  >de</text>
<text x="348" y="1475" class="a"  >saída:</text>
<text x="0" y="1500" class="a"  >1</text>
<text x="24" y="1500" class="a"  >-</text>
<text x="48" y="1500" class="a"  >Binário</text>
<text x="0" y="1525" class="a"  >2</text>
<text x="24" y="1525" class="a"  >-</text>
<text x="48" y="1525" class="a"  >Octal</text>
<text x="0" y="1550" class="a"  >3</text>
<text x="24" y="1550" class="a"  >-</text>
<text x="48" y="1550" class="a"  >Decimal</text>
<text x="0" y="1575" class="a"  >4</text>
<text x="24" y="1575" class="a"  >-</text>
<text x="48" y="1575" class="a"  >Hexadecimal</text>
<text x="0" y="1600" class="a"  >0</text>
<text x="24" y="1600" class="a"  >-</text>
<text x="48" y="1600" class="a"  >Sair</text>
<text x="0" y="1625" class="a"  >Opção:</text>
<text x="84" y="1625" class="a"  >b</text>
<text x="0" y="1675" class="a"  >Digite</text>
<text x="84" y="1675" class="a"  >o</text>
<text x="108" y="1675" class="a"  >número</text>
<text x="192" y="1675" class="a"  >na</text>
<text x="228" y="1675" class="a"  >base</text>
<text x="288" y="1675" class="a"  >de</text>
<text x="324" y="1675" class="a"  >entrada:</text>
<text x="432" y="1675" class="a"  >5</text>
<text x="0" y="1700" class="a"  >Resultado:</text>
<text x="132" y="1700" class="b"  >101</text>
<text x="0" y="1750" class="a"  >Escolha</text>
<text x="96" y="1750" class="a"  >o</text>
<text x="120" y="1750" class="a"  >sistema</text>
<text x="216" y="1750" class="a"  >de</text>
<text x="252" y="1750" class="a"  >base</text>
<text x="312" y="1750" class="a"  >de</text>
<text x="348" y="1750" class="a"  >entrada:</text>
<text x="0" y="1775" class="a"  >1</text>
<text x="24" y="1775" class="a"  >-</text>
<text x="48" y="1775" class="a"  >Binário</text>
<text x="0" y="1800" class="a"  >2</text>
<text x="24" y="1800" class="a"  >-</text>
<text x="48" y="1800" class="a"  >Octal</text>
<text x="0" y="1825" class="a"  >3</text>
<text x="24" y="1825" class="a"  >-</text>
<text x="48" y="1825" class="a"  >Decimal</text>
<text x="0" y="1850" class="a"  >4</text>
<text x="24" y="1850" class="a"  >-</text>
<text x="48" y="1850" class="a"  >Hexadecimal</text>
<text x="0" y="1875" class="a"  >0</text>
<text x="24" y="1875" class="a"  >-</text>
<text x="48" y="1875" class="a"  >Sair</text>
<text x="0" y="1900" class="a"  >Opção:</text>
<text x="84" y="1900" class="a"  >0</text>
<text x="0" y="1925" class="a"  >Encerrando</text>
<text x="132" y="1925" class="a"  >o</text>
<text x="156" y="1925" class="a"  >programa.</text>
<text x="12" y="1950" class="a"  >$</text>
<text x="36" y="1950" class="a"  >exit</text>
</g>
</g>
</g>
</svg>
