<?xml version="1.0"?>
<!-- Generated by SVGo -->
<svg width="952" height="1960"
     xmlns="http://www.w3.org/2000/svg"
     xmlns:xlink="http://www.w3.org/1999/xlink">
<rect x="0" y="0" width="952" height="1960" rx="5" ry="5" style="fill:#282d35" />
<circle cx="20" cy="20" r="7" style="fill:#ff5f58" />
<circle cx="43" cy="20" r="7" style="fill:#ffbd2e" />
<circle cx="66" cy="20" r="7" style="fill:#18c132" />
<g transform="translate(20,60)" >
<g style="font-family:Consolas,Ubuntu,Monaco,Menlo,'BitstreamVeraSansMono','PowerlineSymbols',monospace,Times,TimesNewRoman,serif,Roboto,sans-serif;font-weight:400;font-style:normal;font-size:20px;">
<style type="text/css">

@keyframes k {20.592%{transform:translateX(-0px)}20.594%{transform:translateX(-952px)}83.020%{transform:translateX(-1904px)}83.022%{transform:translateX(-2856px)}83.210%{transform:translateX(-3808px)}83.221%{transform:translateX(-4760px)}}.b{fill:#6464ff}.a{fill:#e5e5e5}

</style>
<g transform="translate(0)">
</g>
<g transform="translate(952)">
<text x="12" y="0" class="a"  >$</text>
</g>
<g transform="translate(1904)">
<text x="12" y="0" class="a"  >$</text>
<text x="36" y="0" class="a"  >./conversor</text>
</g>
<g transform="translate(2856)">
<text x="12" y="0" class="a"  >$</text>
<text x="36" y="0" class="a"  >./conversor</text>
</g>
<g transform="translate(3808)">
<text x="12" y="0" class="a"  >$</text>
<text x="36" y="0" class="a"  >./conversor</text>
<text x="0" y="50" class="a"  >Escolha</text>
<text x="96" y="50" class="a"  >o</text>
<text x="120" y="50" class="a"  >sistema</text>
<text x="216" y="50" class="a"  >de</text>
<text x="252" y="50" class="a"  >base</text>
<text x="312" y="50" class="a"  >de</text>
<text x="348" y="50" class="a"  >entrada:</text>
<text x="0" y="75" class="a"  >1</text>
<text x="24" y="75" class="a"  >-</text>
<text x="48" y="75" class="a"  >Binário</text>
<text x="0" y="100" class="a"  >2</text>
<text x="24" y="100" class="a"  >-</text>
<text x="48" y="100" class="a"  >Octal</text>
<text x="0" y="125" class="a"  >3</text>
<text x="24" y="125" class="a"  >-</text>
<text x="48" y="125" class="a"  >Decimal</text>
</g>
<g transform="translate(0)">
<text x="12" y="0" class="a"  >$</text>
<text x="36" y="0" class="a"  >./conversor</text>
<text x="0" y="50" class="a"  >Escolha</text>
<text x="96" y="50" class="a"  >o</text>
<text x="120" y="50" class="a"  >sistema</text>
<text x="216" y="50" class="a"  >de</text>
<text x="252" y="50" class="a"  >base</text>
<text x="312" y="50" class="a"  >de</text>
<text x="348" y="50" class="a"  >entrada:</text>
<text x="0" y="75" class="a"  >1</text>
<text x="24" y="75" class="a"  >-</text>
<text x="48" y="75" class="a"  >Binário</text>
<text x="0" y="100" class="a"  >2</text>
<text x="24" y="100" class="a"  >-</text>
<text x="48" y="100" class="a"  >Octal</text>
<text x="0" y="125" class="a"  >3</text>
<text x="24" y="125" class="a"  >-</text>
<text x="48" y="125" class="a"  >Decimal</text>
<text x="0" y="150" class="a"  >4</text>
<text x="24" y="150" class="a"  >-</text>
<text x="48" y="150" class="a"  >Hexadecimal</text>
<text x="0" y="175" class="a"  >0</text>
<text x="24" y="175" class="a"  >-</text>
<text x="48" y="175" class="a"  >Sair</text>
<text x="0" y="200" class="a"  >Opção:</text>
<text x="0" y="225" class="a"  >Escolha</text>
<text x="96" y="225" class="a"  >o</text>
<text x="120" y="225" class="a"  >sistema</text>
<text x="216" y="225" class="a"  >de</text>
<text x="252" y="225" class="a"  >base</text>
<text x="312" y="225" class="a"  >de</text>
<text x="348" y="225" class="a"  >saída:</text>
<text x="0" y="250" class="a"  >1</text>
<text x="24" y="250" class="a"  >-</text>
<text x="48" y="250" class="a"  >Binário</text>
<text x="0" y="275" class="a"  >2</text>
<text x="24" y="275" class="a"  >-</text>
<text x="48" y="275" class="a"  >Octal</text>
<text x="0" y="300" class="a"  >3</text>
<text x="24" y="300" class="a"  >-</text>
<text x="48" y="300" class="a"  >Decimal</text>
<text x="0" y="325" class="a"  >4</text>
<text x="24" y="325" class="a"  >-</text>
<text x="48" y="325" class="a"  >Hexadecimal</text>
<text x="0" y="350" class="a"  >0</text>
<text x="24" y="350" class="a"  >-</text>
<text x="48" y="350" class="a"  >Sair</text>
<text x="0" y="375" class="a"  >Opção:</text>
<text x="0" y="400" class="a"  >Digite</text>
<text x="84" y="400" class="a"  >o</text>
<text x="108" y="400" class="a"  >número</text>
<text x="192" y="400" class="a"  >na</text>
<text x="228" y="400" class="a"  >base</text>
<text x="288" y="400" class="a"  >de</text>
<text x="324" y="400" class="a"  >entrada:</text>
<text x="432" y="400" class="a"  >Resultado:</text>
<text x="564" y="400" class="b"  >5</text>
<text x="0" y="450" class="a"  >Escolha</text>
<text x="96" y="450" class="a"  >o</text>
<text x="120" y="450" class="a"  >sistema</text>
<text x="216" y="450" class="a"  >de</text>
<text x="252" y="450" class="a"  >base</text>
<text x="312" y="450" class="a"  >de</text>
<text x="348" y="450" class="a"  >entrada:</text>
<text x="0" y="475" class="a"  >1</text>
<text x="24" y="475" class="a"  >-</text>
<text x="48" y="475" class="a"  >Binário</text>
<text x="0" y="500" class="a"  >2</text>
<text x="24" y="500" class="a"  >-</text>
<text x="48" y="500" class="a"  >Octal</text>
<text x="0" y="525" class="a"  >3</text>
<text x="24" y="525" class="a"  >-</text>
<text x="48" y="525" class="a"  >Decimal</text>
<text x="0" y="550" class="a"  >4</text>
<text x="24" y="550" class="a"  >-</text>
<text x="48" y="550" class="a"  >Hexadecimal</text>
<text x="0" y="575" class="a"  >0</text>
<text x="24" y="575" class="a"  >-</text>
<text x="48" y="575" class="a"  >Sair</text>
<text x="0" y="600" class="a"  >Opção:</text>
<text x="0" y="625" class="a"  >Escolha</text>
<text x="96" y="625" class="a"  >o</text>
<text x="120" y="625" class="a"  >sistema</text>
<text x="216" y="625" class="a"  >de</text>
<text x="252" y="625" class="a"  >base</text>
<text x="312" y="625" class="a"  >de</text>
<text x="348" y="625" class="a"  >saída:</text>
<text x="0" y="650" class="a"  >1</text>
<text x="24" y="650" class="a"  >-</text>
<text x="48" y="650" class="a"  >Binário</text>
<text x="0" y="675" class="a"  >2</text>
<text x="24" y="675" class="a"  >-</text>
<text x="48" y="675" class="a"  >Octal</text>
<text x="0" y="700" class="a"  >3</text>
<text x="24" y="700" class="a"  >-</text>
<text x="48" y="700" class="a"  >Decimal</text>
<text x="0" y="725" class="a"  >4</text>
<text x="24" y="725" class="a"  >-</text>
<text x="48" y="725" class="a"  >Hexadecimal</text>
<text x="0" y="750" class="a"  >0</text>
<text x="24" y="750" class="a"  >-</text>
<text x="48" y="750" class="a"  >Sair</text>
<text x="0" y="775" class="a"  >Opção:</text>
<text x="0" y="800" class="a"  >Digite</text>
<text x="84" y="800" class="a"  >o</text>
<text x="108" y="800" class="a"  >número</text>
<text x="192" y="800" class="a"  >na</text>
<text x="228" y="800" class="a"  >base</text>
<text x="288" y="800" class="a"  >de</text>
<text x="324" y="800" class="a"  >entrada:</text>
<text x="432" y="800" class="a"  >Resultado:</text>
<text x="564" y="800" class="b"  >110</text>
<text x="0" y="850" class="a"  >Escolha</text>
<text x="96" y="850" class="a"  >o</text>
<text x="120" y="850" class="a"  >sistema</text>
<text x="216" y="850" class="a"  >de</text>
<text x="252" y="850" class="a"  >base</text>
<text x="312" y="850" class="a"  >de</text>
<text x="348" y="850" class="a"  >entrada:</text>
<text x="0" y="875" class="a"  >1</text>
<text x="24" y="875" class="a"  >-</text>
<text x="48" y="875" class="a"  >Binário</text>
<text x="0" y="900" class="a"  >2</text>
<text x="24" y="900" class="a"  >-</text>
<text x="48" y="900" class="a"  >Octal</text>
<text x="0" y="925" class="a"  >3</text>
<text x="24" y="925" class="a"  >-</text>
<text x="48" y="925" class="a"  >Decimal</text>
<text x="0" y="950" class="a"  >4</text>
<text x="24" y="950" class="a"  >-</text>
<text x="48" y="950" class="a"  >Hexadecimal</text>
<text x="0" y="975" class="a"  >0</text>
<text x="24" y="975" class="a"  >-</text>
<text x="48" y="975" class="a"  >Sair</text>
<text x="0" y="1000" class="a"  >Opção:</text>
<text x="0" y="1025" class="a"  >Escolha</text>
<text x="96" y="1025" class="a"  >o</text>
<text x="120" y="1025" class="a"  >sistema</text>
<text x="216" y="1025" class="a"  >de</text>
<text x="252" y="1025" class="a"  >base</text>
<text x="312" y="1025" class="a"  >de</text>
<text x="348" y="1025" class="a"  >saída:</text>
<text x="0" y="1050" class="a"  >1</text>
<text x="24" y="1050" class="a"  >-</text>
<text x="48" y="1050" class="a"  >Binário</text>
<text x="0" y="1075" class="a"  >2</text>
<text x="24" y="1075" class="a"  >-</text>
<text x="48" y="1075" class="a"  >Octal</text>
<text x="0" y="1100" class="a"  >3</text>
<text x="24" y="1100" class="a"  >-</text>
<text x="48" y="1100" class="a"  >Decimal</text>
<text x="0" y="1125" class="a"  >4</text>
<text x="24" y="1125" class="a"  >-</text>
<text x="48" y="1125" class="a"  >Hexadecimal</text>
<text x="0" y="1150" class="a"  >0</text>
<text x="24" y="1150" class="a"  >-</text>
<text x="48" y="1150" class="a"  >Sair</text>
<text x="0" y="1175" class="a"  >Opção:</text>
<text x="0" y="1200" class="a"  >Digite</text>
<text x="84" y="1200" class="a"  >o</text>
<text x="108" y="1200" class="a"  >número</text>
<text x="192" y="1200" class="a"  >na</text>
<text x="228" y="1200" class="a"  >base</text>
<text x="288" y="1200" class="a"  >de</text>
<text x="324" y="1200" class="a"  >entrada:</text>
<text x="432" y="1200" class="a"  >Resultado:</text>
<text x="564" y="1200" class="b"  >252</text>
<text x="0" y="1250" class="a"  >Escolha</text>
<text x="96" y="1250" class="a"  >o</text>
<text x="120" y="1250" class="a"  >sistema</text>
<text x="216" y="1250" class="a"  >de</text>
<text x="252" y="1250" class="a"  >base</text>
<text x="312" y="1250" class="a"  >de</text>
<text x="348" y="1250" class="a"  >entrada:</text>
<text x="0" y="1275" class="a"  >1</text>
<text x="24" y="1275" class="a"  >-</text>
<text x="48" y="1275" class="a"  >Binário</text>
</g>
</g>
</g>
</svg>
