<?xml version="1.0"?>
<!-- Generated by SVGo -->
<svg width="1480" height="1985"
     xmlns="http://www.w3.org/2000/svg"
     xmlns:xlink="http://www.w3.org/1999/xlink">
<rect x="0" y="0" width="1480" height="1985" rx="5" ry="5" style="fill:#282d35" />
<circle cx="20" cy="20" r="7" style="fill:#ff5f58" />
<circle cx="43" cy="20" r="7" style="fill:#ffbd2e" />
<circle cx="66" cy="20" r="7" style="fill:#18c132" />
<g transform="translate(20,60)" >
<g style="font-family:Consolas,Ubuntu,Monaco,Menlo,'BitstreamVeraSansMono','PowerlineSymbols',monospace,Times,TimesNewRoman,serif,Roboto,sans-serif;font-weight:400;font-style:normal;font-size:20px;">
<style type="text/css">

@keyframes k {1.781%{transform:translateX(-0px)}1.781%{transform:translateX(-1480px)}4.387%{transform:translateX(-2960px)}4.526%{transform:translateX(-4440px)}5.253%{transform:translateX(-5920px)}5.439%{transform:translateX(-7400px)}5.492%{transform:translateX(-8880px)}5.713%{transform:translateX(-10360px)}5.803%{transform:translateX(-11840px)}6.182%{transform:translateX(-13320px)}6.599%{transform:translateX(-14800px)}6.695%{transform:translateX(-16280px)}6.927%{transform:translateX(-17760px)}7.113%{transform:translateX(-19240px)}7.440%{transform:translateX(-20720px)}7.662%{transform:translateX(-22200px)}7.998%{transform:translateX(-23680px)}8.111%{transform:translateX(-25160px)}8.217%{transform:translateX(-26640px)}8.303%{transform:translateX(-28120px)}9.499%{transform:translateX(-29600px)}9.548%{transform:translateX(-31080px)}9.549%{transform:translateX(-32560px)}9.554%{transform:translateX(-34040px)}13.243%{transform:translateX(-35520px)}13.449%{transform:translateX(-37000px)}15.350%{transform:translateX(-38480px)}15.553%{transform:translateX(-39960px)}15.626%{transform:translateX(-41440px)}16.066%{transform:translateX(-42920px)}16.194%{transform:translateX(-44400px)}16.659%{transform:translateX(-45880px)}17.138%{transform:translateX(-47360px)}17.320%{transform:translateX(-48840px)}17.596%{transform:translateX(-50320px)}19.531%{transform:translateX(-51800px)}20.388%{transform:translateX(-53280px)}21.259%{transform:translateX(-54760px)}21.861%{transform:translateX(-56240px)}22.043%{transform:translateX(-57720px)}23.245%{transform:translateX(-59200px)}23.361%{transform:translateX(-60680px)}23.514%{transform:translateX(-62160px)}25.041%{transform:translateX(-63640px)}25.054%{transform:translateX(-65120px)}25.056%{transform:translateX(-66600px)}25.058%{transform:translateX(-68080px)}27.723%{transform:translateX(-69560px)}28.292%{transform:translateX(-71040px)}28.633%{transform:translateX(-72520px)}28.880%{transform:translateX(-74000px)}29.114%{transform:translateX(-75480px)}29.903%{transform:translateX(-76960px)}30.116%{transform:translateX(-78440px)}30.343%{transform:translateX(-79920px)}32.114%{transform:translateX(-81400px)}32.471%{transform:translateX(-82880px)}33.147%{transform:translateX(-84360px)}35.728%{transform:translateX(-85840px)}35.764%{transform:translateX(-87320px)}38.143%{transform:translateX(-88800px)}39.361%{transform:translateX(-90280px)}40.200%{transform:translateX(-91760px)}40.253%{transform:translateX(-93240px)}40.304%{transform:translateX(-94720px)}40.360%{transform:translateX(-96200px)}40.411%{transform:translateX(-97680px)}40.468%{transform:translateX(-99160px)}42.093%{transform:translateX(-100640px)}42.355%{transform:translateX(-102120px)}42.988%{transform:translateX(-103600px)}43.286%{transform:translateX(-105080px)}45.221%{transform:translateX(-106560px)}46.608%{transform:translateX(-108040px)}46.622%{transform:translateX(-109520px)}46.623%{transform:translateX(-111000px)}46.624%{transform:translateX(-112480px)}52.017%{transform:translateX(-113960px)}52.775%{transform:translateX(-115440px)}53.615%{transform:translateX(-116920px)}53.668%{transform:translateX(-118400px)}53.723%{transform:translateX(-119880px)}54.151%{transform:translateX(-121360px)}54.411%{transform:translateX(-122840px)}55.069%{transform:translateX(-124320px)}55.083%{transform:translateX(-125800px)}55.084%{transform:translateX(-127280px)}57.904%{transform:translateX(-128760px)}59.687%{transform:translateX(-130240px)}59.687%{transform:translateX(-131720px)}63.366%{transform:translateX(-133200px)}64.967%{transform:translateX(-134680px)}64.968%{transform:translateX(-136160px)}66.333%{transform:translateX(-137640px)}66.432%{transform:translateX(-139120px)}66.611%{transform:translateX(-140600px)}67.485%{transform:translateX(-142080px)}67.487%{transform:translateX(-143560px)}79.196%{transform:translateX(-145040px)}80.885%{transform:translateX(-146520px)}80.886%{transform:translateX(-148000px)}83.878%{transform:translateX(-149480px)}85.258%{transform:translateX(-150960px)}93.204%{transform:translateX(-152440px)}93.466%{transform:translateX(-153920px)}94.096%{transform:translateX(-155400px)}94.097%{transform:translateX(-156880px)}95.747%{transform:translateX(-158360px)}96.344%{transform:translateX(-159840px)}96.345%{transform:translateX(-161320px)}96.347%{transform:translateX(-162800px)}}.a{fill:#e5e5e5}.b{fill:#6464ff}

</style>

<g transform="translate(0)">
<text x="12" y="0" class="a"  >$</text>
<text x="36" y="0" class="a"  >./conversor</text>
<text x="180" y="0" class="a"  >--help</text>
<text x="0" y="50" class="a"  >./conversor</text>
<text x="144" y="50" class="a"  >-</text>
<text x="168" y="50" class="a"  >Conversor</text>
<text x="288" y="50" class="a"  >de</text>
<text x="324" y="50" class="a"  >bases</text>
<text x="396" y="50" class="a"  >numéricas</text>
<text x="0" y="100" class="a"  >Uso:</text>
<text x="24" y="125" class="a"  >./conversor</text>
<text x="168" y="125" class="a"  >-h</text>
<text x="204" y="125" class="a"  >|</text>
<text x="228" y="125" class="a"  >--help</text>
<text x="612" y="125" class="a"  >#</text>
<text x="636" y="125" class="a"  >exibe</text>
<text x="708" y="125" class="a"  >esta</text>
<text x="768" y="125" class="a"  >mensagem</text>
<text x="876" y="125" class="a"  >de</text>
<text x="912" y="125" class="a"  >ajuda</text>
<text x="24" y="150" class="a"  >./conversor</text>
<text x="612" y="150" class="a"  >#</text>
<text x="636" y="150" class="a"  >inicia</text>
<text x="720" y="150" class="a"  >o</text>
<text x="744" y="150" class="a"  >programa</text>
<text x="852" y="150" class="a"  >em</text>
<text x="888" y="150" class="a"  >modo</text>
<text x="948" y="150" class="a"  >de</text>
<text x="984" y="150" class="a"  >REPL</text>
<text x="24" y="175" class="a"  >./conversor</text>
<text x="168" y="175" class="a"  >&lt;baseEntrada&gt;</text>
<text x="336" y="175" class="a"  >&lt;baseSaida&gt;</text>
<text x="480" y="175" class="a"  >&lt;numero&gt;</text>
<text x="612" y="175" class="a"  >#</text>
<text x="636" y="175" class="a"  >converte</text>
<text x="744" y="175" class="a"  >&lt;numero&gt;</text>
<text x="852" y="175" class="a"  >da</text>
<text x="888" y="175" class="a"  >&lt;baseEntrada&gt;</text>
<text x="1056" y="175" class="a"  >para</text>
<text x="1116" y="175" class="a"  >&lt;baseSaida&gt;</text>
<text x="0" y="225" class="a"  >Bases</text>
<text x="72" y="225" class="a"  >possíveis</text>
<text x="192" y="225" class="a"  >(pode</text>
<text x="264" y="225" class="a"  >usar</text>
<text x="324" y="225" class="a"  >número</text>
<text x="408" y="225" class="a"  >ou</text>
<text x="444" y="225" class="a"  >letra):</text>
<text x="24" y="250" class="a"  >1</text>
<text x="48" y="250" class="a"  >ou</text>
<text x="84" y="250" class="a"  >b</text>
<text x="108" y="250" class="a"  >ou</text>
<text x="144" y="250" class="a"  >B</text>
<text x="168" y="250" class="a"  >=</text>
<text x="192" y="250" class="a"  >Binário</text>
<text x="24" y="275" class="a"  >2</text>
<text x="48" y="275" class="a"  >ou</text>
<text x="84" y="275" class="a"  >o</text>
<text x="108" y="275" class="a"  >ou</text>
<text x="144" y="275" class="a"  >O</text>
<text x="168" y="275" class="a"  >=</text>
<text x="192" y="275" class="a"  >Octal</text>
<text x="24" y="300" class="a"  >3</text>
<text x="48" y="300" class="a"  >ou</text>
<text x="84" y="300" class="a"  >d</text>
<text x="108" y="300" class="a"  >ou</text>
<text x="144" y="300" class="a"  >D</text>
<text x="168" y="300" class="a"  >=</text>
<text x="192" y="300" class="a"  >Decimal</text>
<text x="24" y="325" class="a"  >4</text>
<text x="48" y="325" class="a"  >ou</text>
<text x="84" y="325" class="a"  >h</text>
<text x="108" y="325" class="a"  >ou</text>
<text x="144" y="325" class="a"  >H</text>
<text x="168" y="325" class="a"  >=</text>
<text x="192" y="325" class="a"  >Hexadecimal</text>
<text x="0" y="375" class="a"  >Exemplo:</text>
<text x="24" y="400" class="a"  >conversor</text>
<text x="144" y="400" class="a"  >4</text>
<text x="168" y="400" class="a"  >2</text>
<text x="192" y="400" class="a"  >1A3F</text>
<text x="276" y="400" class="a"  >#</text>
<text x="300" y="400" class="a"  >converte</text>
<text x="408" y="400" class="a"  >1A3F</text>
<text x="468" y="400" class="a"  >de</text>
<text x="504" y="400" class="a"  >hexadecimal</text>
<text x="648" y="400" class="a"  >para</text>
<text x="708" y="400" class="a"  >octal</text>
<text x="24" y="425" class="a"  >conversor</text>
<text x="144" y="425" class="a"  >h</text>
<text x="168" y="425" class="a"  >o</text>
<text x="192" y="425" class="a"  >1A3F</text>
<text x="276" y="425" class="a"  >#</text>
<text x="300" y="425" class="a"  >converte</text>
<text x="408" y="425" class="a"  >1A3F</text>
<text x="468" y="425" class="a"  >de</text>
<text x="504" y="425" class="a"  >hexadecimal</text>
<text x="648" y="425" class="a"  >para</text>
<text x="708" y="425" class="a"  >octal</text>
<text x="0" y="450" class="a"  >Se</text>
<text x="36" y="450" class="a"  >nenhum</text>
<text x="120" y="450" class="a"  >argumento</text>
<text x="240" y="450" class="a"  >for</text>
<text x="288" y="450" class="a"  >passado,</text>
<text x="396" y="450" class="a"  >o</text>
<text x="420" y="450" class="a"  >modo</text>
<text x="480" y="450" class="a"  >interativo</text>
<text x="612" y="450" class="a"  >será</text>
<text x="672" y="450" class="a"  >iniciado.</text>
<text x="12" y="500" class="a"  >$</text>
<text x="36" y="500" class="a"  >./conversor</text>
<text x="180" y="500" class="a"  >1</text>
<text x="204" y="500" class="a"  >3</text>
<text x="228" y="500" class="a"  >101</text>
<text x="0" y="525" class="a"  >Resultado:</text>
<text x="132" y="525" class="b"  >5</text>
<text x="12" y="550" class="a"  >$</text>
<text x="36" y="550" class="a"  >./conversor</text>
<text x="180" y="550" class="a"  >b</text>
<text x="204" y="550" class="a"  >d</text>
<text x="228" y="550" class="a"  >101</text>
<text x="0" y="575" class="a"  >Resultado:</text>
<text x="132" y="575" class="b"  >5</text>
<text x="12" y="600" class="a"  >$</text>
<text x="36" y="600" class="a"  >./conversor</text>
<text x="180" y="600" class="a"  >d</text>
<text x="204" y="600" class="a"  >b</text>
<text x="228" y="600" class="a"  >5</text>
<text x="0" y="625" class="a"  >Resultado:</text>
<text x="132" y="625" class="b"  >101</text>
<text x="12" y="650" class="a"  >$</text>
<text x="36" y="650" class="a"  >./conversor</text>
<text x="0" y="700" class="a"  >Escolha</text>
<text x="96" y="700" class="a"  >o</text>
<text x="120" y="700" class="a"  >sistema</text>
<text x="216" y="700" class="a"  >de</text>
<text x="252" y="700" class="a"  >base</text>
<text x="312" y="700" class="a"  >de</text>
<text x="348" y="700" class="a"  >entrada:</text>
<text x="0" y="725" class="a"  >1</text>
<text x="24" y="725" class="a"  >-</text>
<text x="48" y="725" class="a"  >Binário</text>
<text x="0" y="750" class="a"  >2</text>
<text x="24" y="750" class="a"  >-</text>
<text x="48" y="750" class="a"  >Octal</text>
<text x="0" y="775" class="a"  >3</text>
<text x="24" y="775" class="a"  >-</text>
<text x="48" y="775" class="a"  >Decimal</text>
<text x="0" y="800" class="a"  >4</text>
<text x="24" y="800" class="a"  >-</text>
<text x="48" y="800" class="a"  >Hexadecimal</text>
<text x="0" y="825" class="a"  >0</text>
<text x="24" y="825" class="a"  >-</text>
<text x="48" y="825" class="a"  >Sair</text>
<text x="0" y="850" class="a"  >Opção:</text>
<text x="84" y="850" class="a"  >1</text>
<text x="0" y="900" class="a"  >Escolha</text>
<text x="96" y="900" class="a"  >o</text>
<text x="120" y="900" class="a"  >sistema</text>
<text x="216" y="900" class="a"  >de</text>
<text x="252" y="900" class="a"  >base</text>
<text x="312" y="900" class="a"  >de</text>
<text x="348" y="900" class="a"  >saída:</text>
<text x="0" y="925" class="a"  >1</text>
<text x="24" y="925" class="a"  >-</text>
<text x="48" y="925" class="a"  >Binário</text>
<text x="0" y="950" class="a"  >2</text>
<text x="24" y="950" class="a"  >-</text>
<text x="48" y="950" class="a"  >Octal</text>
<text x="0" y="975" class="a"  >3</text>
<text x="24" y="975" class="a"  >-</text>
<text x="48" y="975" class="a"  >Decimal</text>
<text x="0" y="1000" class="a"  >4</text>
<text x="24" y="1000" class="a"  >-</text>
<text x="48" y="1000" class="a"  >Hexadecimal</text>
<text x="0" y="1025" class="a"  >0</text>
<text x="24" y="1025" class="a"  >-</text>
<text x="48" y="1025" class="a"  >Sair</text>
<text x="0" y="1050" class="a"  >Opção:</text>
<text x="84" y="1050" class="a"  >3</text>
<text x="0" y="1100" class="a"  >Digite</text>
<text x="84" y="1100" class="a"  >o</text>
<text x="108" y="1100" class="a"  >número</text>
<text x="192" y="1100" class="a"  >na</text>
<text x="228" y="1100" class="a"  >base</text>
<text x="288" y="1100" class="a"  >de</text>
<text x="324" y="1100" class="a"  >entrada:</text>
<text x="432" y="1100" class="a"  >101</text>
<text x="0" y="1125" class="a"  >Resultado:</text>
<text x="132" y="1125" class="b"  >5</text>
<text x="0" y="1175" class="a"  >Escolha</text>
<text x="96" y="1175" class="a"  >o</text>
<text x="120" y="1175" class="a"  >sistema</text>
<text x="216" y="1175" class="a"  >de</text>
<text x="252" y="1175" class="a"  >base</text>
<text x="312" y="1175" class="a"  >de</text>
<text x="348" y="1175" class="a"  >entrada:</text>
<text x="0" y="1200" class="a"  >1</text>
<text x="24" y="1200" class="a"  >-</text>
<text x="48" y="1200" class="a"  >Binário</text>
<text x="0" y="1225" class="a"  >2</text>
<text x="24" y="1225" class="a"  >-</text>
<text x="48" y="1225" class="a"  >Octal</text>
<text x="0" y="1250" class="a"  >3</text>
<text x="24" y="1250" class="a"  >-</text>
<text x="48" y="1250" class="a"  >Decimal</text>
<text x="0" y="1275" class="a"  >4</text>
<text x="24" y="1275" class="a"  >-</text>
<text x="48" y="1275" class="a"  >Hexadecimal</text>
<text x="0" y="1300" class="a"  >0</text>
<text x="24" y="1300" class="a"  >-</text>
<text x="48" y="1300" class="a"  >Sair</text>
<text x="0" y="1325" class="a"  >Opção:</text>
<text x="84" y="1325" class="a"  >h</text>
<text x="0" y="1375" class="a"  >Escolha</text>
<text x="96" y="1375" class="a"  >o</text>
<text x="120" y="1375" class="a"  >sistema</text>
<text x="216" y="1375" class="a"  >de</text>
<text x="252" y="1375" class="a"  >base</text>
<text x="312" y="1375" class="a"  >de</text>
<text x="348" y="1375" class="a"  >saída:</text>
<text x="0" y="1400" class="a"  >1</text>
<text x="24" y="1400" class="a"  >-</text>
<text x="48" y="1400" class="a"  >Binário</text>
<text x="0" y="1425" class="a"  >2</text>
<text x="24" y="1425" class="a"  >-</text>
<text x="48" y="1425" class="a"  >Octal</text>
<text x="0" y="1450" class="a"  >3</text>
<text x="24" y="1450" class="a"  >-</text>
<text x="48" y="1450" class="a"  >Decimal</text>
<text x="0" y="1475" class="a"  >4</text>
<text x="24" y="1475" class="a"  >-</text>
<text x="48" y="1475" class="a"  >Hexadecimal</text>
<text x="0" y="1500" class="a"  >0</text>
<text x="24" y="1500" class="a"  >-</text>
<text x="48" y="1500" class="a"  >Sair</text>
<text x="0" y="1525" class="a"  >Opção:</text>
<text x="84" y="1525" class="a"  >d</text>
<text x="0" y="1575" class="a"  >Digite</text>
<text x="84" y="1575" class="a"  >o</text>
<text x="108" y="1575" class="a"  >número</text>
<text x="192" y="1575" class="a"  >na</text>
<text x="228" y="1575" class="a"  >base</text>
<text x="288" y="1575" class="a"  >de</text>
<text x="324" y="1575" class="a"  >entrada:</text>
<text x="432" y="1575" class="a"  >aa</text>
<text x="0" y="1600" class="a"  >Resultado:</text>
<text x="132" y="1600" class="b"  >170</text>
<text x="0" y="1650" class="a"  >Escolha</text>
<text x="96" y="1650" class="a"  >o</text>
<text x="120" y="1650" class="a"  >sistema</text>
<text x="216" y="1650" class="a"  >de</text>
<text x="252" y="1650" class="a"  >base</text>
<text x="312" y="1650" class="a"  >de</text>
<text x="348" y="1650" class="a"  >entrada:</text>
<text x="0" y="1675" class="a"  >1</text>
<text x="24" y="1675" class="a"  >-</text>
<text x="48" y="1675" class="a"  >Binário</text>
<text x="0" y="1700" class="a"  >2</text>
<text x="24" y="1700" class="a"  >-</text>
<text x="48" y="1700" class="a"  >Octal</text>
<text x="0" y="1725" class="a"  >3</text>
<text x="24" y="1725" class="a"  >-</text>
<text x="48" y="1725" class="a"  >Decimal</text>
<text x="0" y="1750" class="a"  >4</text>
<text x="24" y="1750" class="a"  >-</text>
<text x="48" y="1750" class="a"  >Hexadecimal</text>
<text x="0" y="1775" class="a"  >0</text>
<text x="24" y="1775" class="a"  >-</text>
<text x="48" y="1775" class="a"  >Sair</text>
<text x="0" y="1800" class="a"  >Opção:</text>
<text x="84" y="1800" class="a"  >0</text>
<text x="0" y="1825" class="a"  >Encerrando</text>
<text x="132" y="1825" class="a"  >o</text>
<text x="156" y="1825" class="a"  >programa.</text>
<text x="12" y="1850" class="a"  >$</text>
</g>
</g>
</g>
</svg>
