<?xml version="1.0"?>
<!-- Generated by SVGo -->
<svg width="1168" height="3435"
     xmlns="http://www.w3.org/2000/svg"
     xmlns:xlink="http://www.w3.org/1999/xlink">
<rect x="0" y="0" width="1168" height="3435" rx="5" ry="5" style="fill:#282d35" />
<circle cx="20" cy="20" r="7" style="fill:#ff5f58" />
<circle cx="43" cy="20" r="7" style="fill:#ffbd2e" />
<circle cx="66" cy="20" r="7" style="fill:#18c132" />
<g transform="translate(20,60)" >
<g style="font-family:Consolas,Ubuntu,Monaco,Menlo,'BitstreamVeraSansMono','PowerlineSymbols',monospace,Times,TimesNewRoman,serif,Roboto,sans-serif;font-weight:400;font-style:normal;font-size:20px;">
<style type="text/css">

@keyframes k {0.811%{transform:translateX(-0px)}0.811%{transform:translateX(-1168px)}1.096%{transform:translateX(-2336px)}1.253%{transform:translateX(-3504px)}1.570%{transform:translateX(-4672px)}1.695%{transform:translateX(-5840px)}1.740%{transform:translateX(-7008px)}1.857%{transform:translateX(-8176px)}1.919%{transform:translateX(-9344px)}2.095%{transform:translateX(-10512px)}2.267%{transform:translateX(-11680px)}2.336%{transform:translateX(-12848px)}2.434%{transform:translateX(-14016px)}2.518%{transform:translateX(-15184px)}2.918%{transform:translateX(-16352px)}3.004%{transform:translateX(-17520px)}3.143%{transform:translateX(-18688px)}3.204%{transform:translateX(-19856px)}3.246%{transform:translateX(-21024px)}3.279%{transform:translateX(-22192px)}3.715%{transform:translateX(-23360px)}3.720%{transform:translateX(-24528px)}3.721%{transform:translateX(-25696px)}3.721%{transform:translateX(-26864px)}4.621%{transform:translateX(-28032px)}4.931%{transform:translateX(-29200px)}5.040%{transform:translateX(-30368px)}5.135%{transform:translateX(-31536px)}5.228%{transform:translateX(-32704px)}5.305%{transform:translateX(-33872px)}5.398%{transform:translateX(-35040px)}6.125%{transform:translateX(-36208px)}6.210%{transform:translateX(-37376px)}6.261%{transform:translateX(-38544px)}6.442%{transform:translateX(-39712px)}6.879%{transform:translateX(-40880px)}7.008%{transform:translateX(-42048px)}7.143%{transform:translateX(-43216px)}7.196%{transform:translateX(-44384px)}7.320%{transform:translateX(-45552px)}7.489%{transform:translateX(-46720px)}7.651%{transform:translateX(-47888px)}7.763%{transform:translateX(-49056px)}7.820%{transform:translateX(-50224px)}7.883%{transform:translateX(-51392px)}8.018%{transform:translateX(-52560px)}8.051%{transform:translateX(-53728px)}8.101%{transform:translateX(-54896px)}8.149%{transform:translateX(-56064px)}8.234%{transform:translateX(-57232px)}8.361%{transform:translateX(-58400px)}8.411%{transform:translateX(-59568px)}8.447%{transform:translateX(-60736px)}8.852%{transform:translateX(-61904px)}8.858%{transform:translateX(-63072px)}8.858%{transform:translateX(-64240px)}8.859%{transform:translateX(-65408px)}9.945%{transform:translateX(-66576px)}10.204%{transform:translateX(-67744px)}10.571%{transform:translateX(-68912px)}10.593%{transform:translateX(-70080px)}10.616%{transform:translateX(-71248px)}10.639%{transform:translateX(-72416px)}10.662%{transform:translateX(-73584px)}10.686%{transform:translateX(-74752px)}10.710%{transform:translateX(-75920px)}10.733%{transform:translateX(-77088px)}10.756%{transform:translateX(-78256px)}10.779%{transform:translateX(-79424px)}10.803%{transform:translateX(-80592px)}10.830%{transform:translateX(-81760px)}10.850%{transform:translateX(-82928px)}10.873%{transform:translateX(-84096px)}10.896%{transform:translateX(-85264px)}10.921%{transform:translateX(-86432px)}10.944%{transform:translateX(-87600px)}11.060%{transform:translateX(-88768px)}11.160%{transform:translateX(-89936px)}11.249%{transform:translateX(-91104px)}11.349%{transform:translateX(-92272px)}12.162%{transform:translateX(-93440px)}12.437%{transform:translateX(-94608px)}12.634%{transform:translateX(-95776px)}12.717%{transform:translateX(-96944px)}12.918%{transform:translateX(-98112px)}12.992%{transform:translateX(-99280px)}13.044%{transform:translateX(-100448px)}13.284%{transform:translateX(-101616px)}13.284%{transform:translateX(-102784px)}13.290%{transform:translateX(-103952px)}13.290%{transform:translateX(-105120px)}13.290%{transform:translateX(-106288px)}14.294%{transform:translateX(-107456px)}14.745%{transform:translateX(-108624px)}15.108%{transform:translateX(-109792px)}15.132%{transform:translateX(-110960px)}15.155%{transform:translateX(-112128px)}15.179%{transform:translateX(-113296px)}15.204%{transform:translateX(-114464px)}15.926%{transform:translateX(-115632px)}16.833%{transform:translateX(-116800px)}17.210%{transform:translateX(-117968px)}17.446%{transform:translateX(-119136px)}17.538%{transform:translateX(-120304px)}17.915%{transform:translateX(-121472px)}17.955%{transform:translateX(-122640px)}18.023%{transform:translateX(-123808px)}18.451%{transform:translateX(-124976px)}18.451%{transform:translateX(-126144px)}18.456%{transform:translateX(-127312px)}18.456%{transform:translateX(-128480px)}18.456%{transform:translateX(-129648px)}19.196%{transform:translateX(-130816px)}19.857%{transform:translateX(-131984px)}20.103%{transform:translateX(-133152px)}20.204%{transform:translateX(-134320px)}20.302%{transform:translateX(-135488px)}20.395%{transform:translateX(-136656px)}20.493%{transform:translateX(-137824px)}20.589%{transform:translateX(-138992px)}21.046%{transform:translateX(-140160px)}21.144%{transform:translateX(-141328px)}21.339%{transform:translateX(-142496px)}21.483%{transform:translateX(-143664px)}22.121%{transform:translateX(-144832px)}22.630%{transform:translateX(-146000px)}22.630%{transform:translateX(-147168px)}22.635%{transform:translateX(-148336px)}22.636%{transform:translateX(-149504px)}22.636%{transform:translateX(-150672px)}23.607%{transform:translateX(-151840px)}24.021%{transform:translateX(-153008px)}24.385%{transform:translateX(-154176px)}24.409%{transform:translateX(-155344px)}24.433%{transform:translateX(-156512px)}24.710%{transform:translateX(-157680px)}25.098%{transform:translateX(-158848px)}25.231%{transform:translateX(-160016px)}25.317%{transform:translateX(-161184px)}25.875%{transform:translateX(-162352px)}26.064%{transform:translateX(-163520px)}26.358%{transform:translateX(-164688px)}26.363%{transform:translateX(-165856px)}26.364%{transform:translateX(-167024px)}26.364%{transform:translateX(-168192px)}27.188%{transform:translateX(-169360px)}46.173%{transform:translateX(-170528px)}46.471%{transform:translateX(-171696px)}46.568%{transform:translateX(-172864px)}46.624%{transform:translateX(-174032px)}47.261%{transform:translateX(-175200px)}47.266%{transform:translateX(-176368px)}47.266%{transform:translateX(-177536px)}47.266%{transform:translateX(-178704px)}48.952%{transform:translateX(-179872px)}49.361%{transform:translateX(-181040px)}49.725%{transform:translateX(-182208px)}49.749%{transform:translateX(-183376px)}49.771%{transform:translateX(-184544px)}49.794%{transform:translateX(-185712px)}49.915%{transform:translateX(-186880px)}50.017%{transform:translateX(-188048px)}50.378%{transform:translateX(-189216px)}50.548%{transform:translateX(-190384px)}50.719%{transform:translateX(-191552px)}50.808%{transform:translateX(-192720px)}52.709%{transform:translateX(-193888px)}52.806%{transform:translateX(-195056px)}52.890%{transform:translateX(-196224px)}52.976%{transform:translateX(-197392px)}53.303%{transform:translateX(-198560px)}53.437%{transform:translateX(-199728px)}53.526%{transform:translateX(-200896px)}53.610%{transform:translateX(-202064px)}54.162%{transform:translateX(-203232px)}54.259%{transform:translateX(-204400px)}54.390%{transform:translateX(-205568px)}54.391%{transform:translateX(-206736px)}54.396%{transform:translateX(-207904px)}54.396%{transform:translateX(-209072px)}54.396%{transform:translateX(-210240px)}54.823%{transform:translateX(-211408px)}54.955%{transform:translateX(-212576px)}55.320%{transform:translateX(-213744px)}55.343%{transform:translateX(-214912px)}55.366%{transform:translateX(-216080px)}55.392%{transform:translateX(-217248px)}55.662%{transform:translateX(-218416px)}55.948%{transform:translateX(-219584px)}56.067%{transform:translateX(-220752px)}56.233%{transform:translateX(-221920px)}56.346%{transform:translateX(-223088px)}56.529%{transform:translateX(-224256px)}56.595%{transform:translateX(-225424px)}56.763%{transform:translateX(-226592px)}56.980%{transform:translateX(-227760px)}56.980%{transform:translateX(-228928px)}56.985%{transform:translateX(-230096px)}56.986%{transform:translateX(-231264px)}56.986%{transform:translateX(-232432px)}63.288%{transform:translateX(-233600px)}63.348%{transform:translateX(-234768px)}63.708%{transform:translateX(-235936px)}63.948%{transform:translateX(-237104px)}64.174%{transform:translateX(-238272px)}64.224%{transform:translateX(-239440px)}64.276%{transform:translateX(-240608px)}64.383%{transform:translateX(-241776px)}64.447%{transform:translateX(-242944px)}64.581%{transform:translateX(-244112px)}64.765%{transform:translateX(-245280px)}64.881%{transform:translateX(-246448px)}64.983%{transform:translateX(-247616px)}66.152%{transform:translateX(-248784px)}66.157%{transform:translateX(-249952px)}66.157%{transform:translateX(-251120px)}69.959%{transform:translateX(-252288px)}70.072%{transform:translateX(-253456px)}70.194%{transform:translateX(-254624px)}70.647%{transform:translateX(-255792px)}70.897%{transform:translateX(-256960px)}70.995%{transform:translateX(-258128px)}71.171%{transform:translateX(-259296px)}71.247%{transform:translateX(-260464px)}71.390%{transform:translateX(-261632px)}71.447%{transform:translateX(-262800px)}71.614%{transform:translateX(-263968px)}71.702%{transform:translateX(-265136px)}71.790%{transform:translateX(-266304px)}72.046%{transform:translateX(-267472px)}72.204%{transform:translateX(-268640px)}72.246%{transform:translateX(-269808px)}72.312%{transform:translateX(-270976px)}72.368%{transform:translateX(-272144px)}72.440%{transform:translateX(-273312px)}72.603%{transform:translateX(-274480px)}72.649%{transform:translateX(-275648px)}72.674%{transform:translateX(-276816px)}73.019%{transform:translateX(-277984px)}73.383%{transform:translateX(-279152px)}73.408%{transform:translateX(-280320px)}73.431%{transform:translateX(-281488px)}73.455%{transform:translateX(-282656px)}73.477%{transform:translateX(-283824px)}73.501%{transform:translateX(-284992px)}73.524%{transform:translateX(-286160px)}73.549%{transform:translateX(-287328px)}73.570%{transform:translateX(-288496px)}73.593%{transform:translateX(-289664px)}73.672%{transform:translateX(-290832px)}73.776%{transform:translateX(-292000px)}73.875%{transform:translateX(-293168px)}73.966%{transform:translateX(-294336px)}74.060%{transform:translateX(-295504px)}74.152%{transform:translateX(-296672px)}74.243%{transform:translateX(-297840px)}74.469%{transform:translateX(-299008px)}74.872%{transform:translateX(-300176px)}74.872%{transform:translateX(-301344px)}76.529%{transform:translateX(-302512px)}76.848%{transform:translateX(-303680px)}76.848%{transform:translateX(-304848px)}77.241%{transform:translateX(-306016px)}77.560%{transform:translateX(-307184px)}78.045%{transform:translateX(-308352px)}78.129%{transform:translateX(-309520px)}78.218%{transform:translateX(-310688px)}78.603%{transform:translateX(-311856px)}78.603%{transform:translateX(-313024px)}80.966%{transform:translateX(-314192px)}81.282%{transform:translateX(-315360px)}81.283%{transform:translateX(-316528px)}81.641%{transform:translateX(-317696px)}82.146%{transform:translateX(-318864px)}82.978%{transform:translateX(-320032px)}83.035%{transform:translateX(-321200px)}83.086%{transform:translateX(-322368px)}83.759%{transform:translateX(-323536px)}83.760%{transform:translateX(-324704px)}88.282%{transform:translateX(-325872px)}88.753%{transform:translateX(-327040px)}88.753%{transform:translateX(-328208px)}89.282%{transform:translateX(-329376px)}89.963%{transform:translateX(-330544px)}91.379%{transform:translateX(-331712px)}91.511%{transform:translateX(-332880px)}91.675%{transform:translateX(-334048px)}92.106%{transform:translateX(-335216px)}92.107%{transform:translateX(-336384px)}96.483%{transform:translateX(-337552px)}96.955%{transform:translateX(-338720px)}96.955%{transform:translateX(-339888px)}96.956%{transform:translateX(-341056px)}96.956%{transform:translateX(-342224px)}98.643%{transform:translateX(-343392px)}98.856%{transform:translateX(-344560px)}98.944%{transform:translateX(-345728px)}99.203%{transform:translateX(-346896px)}}.a{fill:#e5e5e5}.b{fill:#6464ff}

</style>

<g transform="translate(0)">
<text x="0" y="25" class="a"  >./conversor</text>
<text x="144" y="25" class="a"  >-</text>
<text x="168" y="25" class="a"  >Conversor</text>
<text x="288" y="25" class="a"  >de</text>
<text x="324" y="25" class="a"  >bases</text>
<text x="396" y="25" class="a"  >numéricas</text>
<text x="0" y="75" class="a"  >Uso:</text>
<text x="24" y="100" class="a"  >./conversor</text>
<text x="168" y="100" class="a"  >-h</text>
<text x="204" y="100" class="a"  >|</text>
<text x="228" y="100" class="a"  >--help</text>
<text x="612" y="100" class="a"  >#</text>
<text x="636" y="100" class="a"  >exibe</text>
<text x="708" y="100" class="a"  >esta</text>
<text x="768" y="100" class="a"  >mensagem</text>
<text x="876" y="100" class="a"  >de</text>
<text x="912" y="100" class="a"  >ajuda</text>
<text x="24" y="125" class="a"  >./conversor</text>
<text x="612" y="125" class="a"  >#</text>
<text x="636" y="125" class="a"  >inicia</text>
<text x="720" y="125" class="a"  >o</text>
<text x="744" y="125" class="a"  >programa</text>
<text x="852" y="125" class="a"  >em</text>
<text x="888" y="125" class="a"  >modo</text>
<text x="948" y="125" class="a"  >de</text>
<text x="984" y="125" class="a"  >REPL</text>
<text x="24" y="150" class="a"  >./conversor</text>
<text x="168" y="150" class="a"  >&lt;baseEntrada&gt;</text>
<text x="336" y="150" class="a"  >&lt;baseSaida&gt;</text>
<text x="480" y="150" class="a"  >&lt;numero&gt;</text>
<text x="612" y="150" class="a"  >#</text>
<text x="636" y="150" class="a"  >converte</text>
<text x="744" y="150" class="a"  >&lt;numero&gt;</text>
<text x="852" y="150" class="a"  >da</text>
<text x="888" y="150" class="a"  >&lt;baseEntrada&gt;</text>
<text x="1056" y="150" class="a"  >para</text>
<text x="1116" y="150" class="a" >&lt;</text>
<text x="0" y="175" class="a"  >baseSaida&gt;</text>
<text x="0" y="225" class="a"  >Bases</text>
<text x="72" y="225" class="a"  >possíveis</text>
<text x="192" y="225" class="a"  >(pode</text>
<text x="264" y="225" class="a"  >usar</text>
<text x="324" y="225" class="a"  >número</text>
<text x="408" y="225" class="a"  >ou</text>
<text x="444" y="225" class="a"  >letra):</text>
<text x="24" y="250" class="a"  >1</text>
<text x="48" y="250" class="a"  >ou</text>
<text x="84" y="250" class="a"  >b</text>
<text x="108" y="250" class="a"  >ou</text>
<text x="144" y="250" class="a"  >B</text>
<text x="168" y="250" class="a"  >=</text>
<text x="192" y="250" class="a"  >Binário</text>
<text x="24" y="275" class="a"  >2</text>
<text x="48" y="275" class="a"  >ou</text>
<text x="84" y="275" class="a"  >o</text>
<text x="108" y="275" class="a"  >ou</text>
<text x="144" y="275" class="a"  >O</text>
<text x="168" y="275" class="a"  >=</text>
<text x="192" y="275" class="a"  >Octal</text>
<text x="24" y="300" class="a"  >3</text>
<text x="48" y="300" class="a"  >ou</text>
<text x="84" y="300" class="a"  >d</text>
<text x="108" y="300" class="a"  >ou</text>
<text x="144" y="300" class="a"  >D</text>
<text x="168" y="300" class="a"  >=</text>
<text x="192" y="300" class="a"  >Decimal</text>
<text x="24" y="325" class="a"  >4</text>
<text x="48" y="325" class="a"  >ou</text>
<text x="84" y="325" class="a"  >h</text>
<text x="108" y="325" class="a"  >ou</text>
<text x="144" y="325" class="a"  >H</text>
<text x="168" y="325" class="a"  >=</text>
<text x="192" y="325" class="a"  >Hexadecimal</text>
<text x="0" y="375" class="a"  >Exemplo:</text>
<text x="24" y="400" class="a"  >conversor</text>
<text x="144" y="400" class="a"  >4</text>
<text x="168" y="400" class="a"  >2</text>
<text x="192" y="400" class="a"  >1A3F</text>
<text x="276" y="400" class="a"  >#</text>
<text x="300" y="400" class="a"  >converte</text>
<text x="408" y="400" class="a"  >1A3F</text>
<text x="468" y="400" class="a"  >de</text>
<text x="504" y="400" class="a"  >hexadecimal</text>
<text x="648" y="400" class="a"  >para</text>
<text x="708" y="400" class="a"  >octal</text>
<text x="24" y="425" class="a"  >conversor</text>
<text x="144" y="425" class="a"  >h</text>
<text x="168" y="425" class="a"  >o</text>
<text x="192" y="425" class="a"  >1A3F</text>
<text x="276" y="425" class="a"  >#</text>
<text x="300" y="425" class="a"  >converte</text>
<text x="408" y="425" class="a"  >1A3F</text>
<text x="468" y="425" class="a"  >de</text>
<text x="504" y="425" class="a"  >hexadecimal</text>
<text x="648" y="425" class="a"  >para</text>
<text x="708" y="425" class="a"  >octal</text>
<text x="0" y="450" class="a"  >Se</text>
<text x="36" y="450" class="a"  >nenhum</text>
<text x="120" y="450" class="a"  >argumento</text>
<text x="240" y="450" class="a"  >for</text>
<text x="288" y="450" class="a"  >passado,</text>
<text x="396" y="450" class="a"  >o</text>
<text x="420" y="450" class="a"  >modo</text>
<text x="480" y="450" class="a"  >interativo</text>
<text x="612" y="450" class="a"  >será</text>
<text x="672" y="450" class="a"  >iniciado.</text>
<text x="12" y="500" class="a"  >$</text>
<text x="36" y="500" class="a"  >./conversor</text>
<text x="180" y="500" class="a"  >123</text>
<text x="228" y="500" class="a"  >#</text>
<text x="252" y="500" class="a"  >entrada</text>
<text x="348" y="500" class="a"  >invalida</text>
<text x="0" y="550" class="a"  >./conversor</text>
<text x="144" y="550" class="a"  >-</text>
<text x="168" y="550" class="a"  >Conversor</text>
<text x="288" y="550" class="a"  >de</text>
<text x="324" y="550" class="a"  >bases</text>
<text x="396" y="550" class="a"  >numéricas</text>
<text x="0" y="600" class="a"  >Uso:</text>
<text x="24" y="625" class="a"  >./conversor</text>
<text x="168" y="625" class="a"  >-h</text>
<text x="204" y="625" class="a"  >|</text>
<text x="228" y="625" class="a"  >--help</text>
<text x="612" y="625" class="a"  >#</text>
<text x="636" y="625" class="a"  >exibe</text>
<text x="708" y="625" class="a"  >esta</text>
<text x="768" y="625" class="a"  >mensagem</text>
<text x="876" y="625" class="a"  >de</text>
<text x="912" y="625" class="a"  >ajuda</text>
<text x="24" y="650" class="a"  >./conversor</text>
<text x="612" y="650" class="a"  >#</text>
<text x="636" y="650" class="a"  >inicia</text>
<text x="720" y="650" class="a"  >o</text>
<text x="744" y="650" class="a"  >programa</text>
<text x="852" y="650" class="a"  >em</text>
<text x="888" y="650" class="a"  >modo</text>
<text x="948" y="650" class="a"  >de</text>
<text x="984" y="650" class="a"  >REPL</text>
<text x="24" y="675" class="a"  >./conversor</text>
<text x="168" y="675" class="a"  >&lt;baseEntrada&gt;</text>
<text x="336" y="675" class="a"  >&lt;baseSaida&gt;</text>
<text x="480" y="675" class="a"  >&lt;numero&gt;</text>
<text x="612" y="675" class="a"  >#</text>
<text x="636" y="675" class="a"  >converte</text>
<text x="744" y="675" class="a"  >&lt;numero&gt;</text>
<text x="852" y="675" class="a"  >da</text>
<text x="888" y="675" class="a"  >&lt;baseEntrada&gt;</text>
<text x="1056" y="675" class="a"  >para</text>
<text x="1116" y="675" class="a" >&lt;</text>
<text x="0" y="700" class="a"  >baseSaida&gt;</text>
<text x="0" y="750" class="a"  >Bases</text>
<text x="72" y="750" class="a"  >possíveis</text>
<text x="192" y="750" class="a"  >(pode</text>
<text x="264" y="750" class="a"  >usar</text>
<text x="324" y="750" class="a"  >número</text>
<text x="408" y="750" class="a"  >ou</text>
<text x="444" y="750" class="a"  >letra):</text>
<text x="24" y="775" class="a"  >1</text>
<text x="48" y="775" class="a"  >ou</text>
<text x="84" y="775" class="a"  >b</text>
<text x="108" y="775" class="a"  >ou</text>
<text x="144" y="775" class="a"  >B</text>
<text x="168" y="775" class="a"  >=</text>
<text x="192" y="775" class="a"  >Binário</text>
<text x="24" y="800" class="a"  >2</text>
<text x="48" y="800" class="a"  >ou</text>
<text x="84" y="800" class="a"  >o</text>
<text x="108" y="800" class="a"  >ou</text>
<text x="144" y="800" class="a"  >O</text>
<text x="168" y="800" class="a"  >=</text>
<text x="192" y="800" class="a"  >Octal</text>
<text x="24" y="825" class="a"  >3</text>
<text x="48" y="825" class="a"  >ou</text>
<text x="84" y="825" class="a"  >d</text>
<text x="108" y="825" class="a"  >ou</text>
<text x="144" y="825" class="a"  >D</text>
<text x="168" y="825" class="a"  >=</text>
<text x="192" y="825" class="a"  >Decimal</text>
<text x="24" y="850" class="a"  >4</text>
<text x="48" y="850" class="a"  >ou</text>
<text x="84" y="850" class="a"  >h</text>
<text x="108" y="850" class="a"  >ou</text>
<text x="144" y="850" class="a"  >H</text>
<text x="168" y="850" class="a"  >=</text>
<text x="192" y="850" class="a"  >Hexadecimal</text>
<text x="0" y="900" class="a"  >Exemplo:</text>
<text x="24" y="925" class="a"  >conversor</text>
<text x="144" y="925" class="a"  >4</text>
<text x="168" y="925" class="a"  >2</text>
<text x="192" y="925" class="a"  >1A3F</text>
<text x="276" y="925" class="a"  >#</text>
<text x="300" y="925" class="a"  >converte</text>
<text x="408" y="925" class="a"  >1A3F</text>
<text x="468" y="925" class="a"  >de</text>
<text x="504" y="925" class="a"  >hexadecimal</text>
<text x="648" y="925" class="a"  >para</text>
<text x="708" y="925" class="a"  >octal</text>
<text x="24" y="950" class="a"  >conversor</text>
<text x="144" y="950" class="a"  >h</text>
<text x="168" y="950" class="a"  >o</text>
<text x="192" y="950" class="a"  >1A3F</text>
<text x="276" y="950" class="a"  >#</text>
<text x="300" y="950" class="a"  >converte</text>
<text x="408" y="950" class="a"  >1A3F</text>
<text x="468" y="950" class="a"  >de</text>
<text x="504" y="950" class="a"  >hexadecimal</text>
<text x="648" y="950" class="a"  >para</text>
<text x="708" y="950" class="a"  >octal</text>
<text x="0" y="975" class="a"  >Se</text>
<text x="36" y="975" class="a"  >nenhum</text>
<text x="120" y="975" class="a"  >argumento</text>
<text x="240" y="975" class="a"  >for</text>
<text x="288" y="975" class="a"  >passado,</text>
<text x="396" y="975" class="a"  >o</text>
<text x="420" y="975" class="a"  >modo</text>
<text x="480" y="975" class="a"  >interativo</text>
<text x="612" y="975" class="a"  >será</text>
<text x="672" y="975" class="a"  >iniciado.</text>
<text x="0" y="1050" class="a"  >ERRO:</text>
<text x="72" y="1050" class="a"  >Modo</text>
<text x="132" y="1050" class="a"  >de</text>
<text x="168" y="1050" class="a"  >uso</text>
<text x="216" y="1050" class="a"  >ou</text>
<text x="252" y="1050" class="a"  >argumentos</text>
<text x="384" y="1050" class="a"  >inválido!</text>
<text x="12" y="1075" class="a"  >$</text>
<text x="36" y="1075" class="a"  >./conversor</text>
<text x="180" y="1075" class="a"  >1</text>
<text x="204" y="1075" class="a"  >3</text>
<text x="228" y="1075" class="a"  >101</text>
<text x="0" y="1100" class="a"  >Resultado:</text>
<text x="132" y="1100" class="b"  >5</text>
<text x="12" y="1125" class="a"  >$</text>
<text x="36" y="1125" class="a"  >./conversor</text>
<text x="180" y="1125" class="a"  >b</text>
<text x="204" y="1125" class="a"  >d</text>
<text x="228" y="1125" class="a"  >101</text>
<text x="0" y="1150" class="a"  >Resultado:</text>
<text x="132" y="1150" class="b"  >5</text>
<text x="12" y="1175" class="a"  >$</text>
<text x="36" y="1175" class="a"  >./conversor</text>
<text x="180" y="1175" class="a"  >d</text>
<text x="204" y="1175" class="a"  >b</text>
<text x="228" y="1175" class="a"  >6</text>
<text x="0" y="1200" class="a"  >Resultado:</text>
<text x="132" y="1200" class="b"  >110</text>
<text x="12" y="1225" class="a"  >$</text>
<text x="36" y="1225" class="a"  >./conversor</text>
<text x="180" y="1225" class="a"  >b</text>
<text x="204" y="1225" class="a"  >d</text>
<text x="228" y="1225" class="a"  >6</text>
<text x="0" y="1250" class="a"  >Número</text>
<text x="84" y="1250" class="a"  >inválido</text>
<text x="192" y="1250" class="a"  >para</text>
<text x="252" y="1250" class="a"  >a</text>
<text x="276" y="1250" class="a"  >base</text>
<text x="336" y="1250" class="a"  >escolhida!</text>
<text x="12" y="1275" class="a"  >$</text>
<text x="36" y="1275" class="a"  >./conversor</text>
<text x="180" y="1275" class="a"  >b</text>
<text x="204" y="1275" class="a"  >d</text>
<text x="228" y="1275" class="a"  >110</text>
<text x="0" y="1300" class="a"  >Resultado:</text>
<text x="132" y="1300" class="b"  >6</text>
<text x="12" y="1325" class="a"  >$</text>
<text x="36" y="1325" class="a"  >./conversor</text>
<text x="180" y="1325" class="a"  >h</text>
<text x="204" y="1325" class="a"  >d</text>
<text x="228" y="1325" class="a"  >aa</text>
<text x="0" y="1350" class="a"  >Resultado:</text>
<text x="132" y="1350" class="b"  >170</text>
<text x="12" y="1375" class="a"  >$</text>
<text x="36" y="1375" class="a"  >./conversor</text>
<text x="180" y="1375" class="a"  >d</text>
<text x="204" y="1375" class="a"  >h</text>
<text x="228" y="1375" class="a"  >170</text>
<text x="0" y="1400" class="a"  >Resultado:</text>
<text x="132" y="1400" class="b"  >AA</text>
<text x="12" y="1425" class="a"  >$</text>
<text x="36" y="1425" class="a"  >./conversor</text>
<text x="0" y="1475" class="a"  >Escolha</text>
<text x="96" y="1475" class="a"  >o</text>
<text x="120" y="1475" class="a"  >sistema</text>
<text x="216" y="1475" class="a"  >de</text>
<text x="252" y="1475" class="a"  >base</text>
<text x="312" y="1475" class="a"  >de</text>
<text x="348" y="1475" class="a"  >entrada:</text>
<text x="0" y="1500" class="a"  >1</text>
<text x="24" y="1500" class="a"  >-</text>
<text x="48" y="1500" class="a"  >Binário</text>
<text x="0" y="1525" class="a"  >2</text>
<text x="24" y="1525" class="a"  >-</text>
<text x="48" y="1525" class="a"  >Octal</text>
<text x="0" y="1550" class="a"  >3</text>
<text x="24" y="1550" class="a"  >-</text>
<text x="48" y="1550" class="a"  >Decimal</text>
<text x="0" y="1575" class="a"  >4</text>
<text x="24" y="1575" class="a"  >-</text>
<text x="48" y="1575" class="a"  >Hexadecimal</text>
<text x="0" y="1600" class="a"  >0</text>
<text x="24" y="1600" class="a"  >-</text>
<text x="48" y="1600" class="a"  >Sair</text>
<text x="0" y="1625" class="a"  >Opção:</text>
<text x="84" y="1625" class="a"  >aaa</text>
<text x="0" y="1650" class="a"  >Base</text>
<text x="60" y="1650" class="a"  >de</text>
<text x="96" y="1650" class="a"  >entrada</text>
<text x="192" y="1650" class="a"  >inválida!</text>
<text x="312" y="1650" class="a"  >Use</text>
<text x="360" y="1650" class="a"  >1/b=Binário,</text>
<text x="516" y="1650" class="a"  >2/o=Octal,</text>
<text x="648" y="1650" class="a"  >3/d=Decimal,</text>
<text x="804" y="1650" class="a"  >4/h=Hexadecimal</text>
<text x="996" y="1650" class="a"  >ou</text>
<text x="1032" y="1650" class="a"  >0</text>
<text x="1056" y="1650" class="a"  >para</text>
<text x="1116" y="1650" class="a" >s</text>
<text x="0" y="1675" class="a"  >air.</text>
<text x="0" y="1725" class="a"  >Escolha</text>
<text x="96" y="1725" class="a"  >o</text>
<text x="120" y="1725" class="a"  >sistema</text>
<text x="216" y="1725" class="a"  >de</text>
<text x="252" y="1725" class="a"  >base</text>
<text x="312" y="1725" class="a"  >de</text>
<text x="348" y="1725" class="a"  >entrada:</text>
<text x="0" y="1750" class="a"  >1</text>
<text x="24" y="1750" class="a"  >-</text>
<text x="48" y="1750" class="a"  >Binário</text>
<text x="0" y="1775" class="a"  >2</text>
<text x="24" y="1775" class="a"  >-</text>
<text x="48" y="1775" class="a"  >Octal</text>
<text x="0" y="1800" class="a"  >3</text>
<text x="24" y="1800" class="a"  >-</text>
<text x="48" y="1800" class="a"  >Decimal</text>
<text x="0" y="1825" class="a"  >4</text>
<text x="24" y="1825" class="a"  >-</text>
<text x="48" y="1825" class="a"  >Hexadecimal</text>
<text x="0" y="1850" class="a"  >0</text>
<text x="24" y="1850" class="a"  >-</text>
<text x="48" y="1850" class="a"  >Sair</text>
<text x="0" y="1875" class="a"  >Opção:</text>
<text x="84" y="1875" class="a"  >1</text>
<text x="0" y="1925" class="a"  >Escolha</text>
<text x="96" y="1925" class="a"  >o</text>
<text x="120" y="1925" class="a"  >sistema</text>
<text x="216" y="1925" class="a"  >de</text>
<text x="252" y="1925" class="a"  >base</text>
<text x="312" y="1925" class="a"  >de</text>
<text x="348" y="1925" class="a"  >saída:</text>
<text x="0" y="1950" class="a"  >1</text>
<text x="24" y="1950" class="a"  >-</text>
<text x="48" y="1950" class="a"  >Binário</text>
<text x="0" y="1975" class="a"  >2</text>
<text x="24" y="1975" class="a"  >-</text>
<text x="48" y="1975" class="a"  >Octal</text>
<text x="0" y="2000" class="a"  >3</text>
<text x="24" y="2000" class="a"  >-</text>
<text x="48" y="2000" class="a"  >Decimal</text>
<text x="0" y="2025" class="a"  >4</text>
<text x="24" y="2025" class="a"  >-</text>
<text x="48" y="2025" class="a"  >Hexadecimal</text>
<text x="0" y="2050" class="a"  >0</text>
<text x="24" y="2050" class="a"  >-</text>
<text x="48" y="2050" class="a"  >Sair</text>
<text x="0" y="2075" class="a"  >Opção:</text>
<text x="84" y="2075" class="a"  >3</text>
<text x="0" y="2125" class="a"  >Digite</text>
<text x="84" y="2125" class="a"  >o</text>
<text x="108" y="2125" class="a"  >número</text>
<text x="192" y="2125" class="a"  >na</text>
<text x="228" y="2125" class="a"  >base</text>
<text x="288" y="2125" class="a"  >de</text>
<text x="324" y="2125" class="a"  >entrada:</text>
<text x="432" y="2125" class="a"  >101</text>
<text x="0" y="2150" class="a"  >Resultado:</text>
<text x="132" y="2150" class="b"  >5</text>
<text x="0" y="2200" class="a"  >Escolha</text>
<text x="96" y="2200" class="a"  >o</text>
<text x="120" y="2200" class="a"  >sistema</text>
<text x="216" y="2200" class="a"  >de</text>
<text x="252" y="2200" class="a"  >base</text>
<text x="312" y="2200" class="a"  >de</text>
<text x="348" y="2200" class="a"  >entrada:</text>
<text x="0" y="2225" class="a"  >1</text>
<text x="24" y="2225" class="a"  >-</text>
<text x="48" y="2225" class="a"  >Binário</text>
<text x="0" y="2250" class="a"  >2</text>
<text x="24" y="2250" class="a"  >-</text>
<text x="48" y="2250" class="a"  >Octal</text>
<text x="0" y="2275" class="a"  >3</text>
<text x="24" y="2275" class="a"  >-</text>
<text x="48" y="2275" class="a"  >Decimal</text>
<text x="0" y="2300" class="a"  >4</text>
<text x="24" y="2300" class="a"  >-</text>
<text x="48" y="2300" class="a"  >Hexadecimal</text>
<text x="0" y="2325" class="a"  >0</text>
<text x="24" y="2325" class="a"  >-</text>
<text x="48" y="2325" class="a"  >Sair</text>
<text x="0" y="2350" class="a"  >Opção:</text>
<text x="84" y="2350" class="a"  >b</text>
<text x="0" y="2400" class="a"  >Escolha</text>
<text x="96" y="2400" class="a"  >o</text>
<text x="120" y="2400" class="a"  >sistema</text>
<text x="216" y="2400" class="a"  >de</text>
<text x="252" y="2400" class="a"  >base</text>
<text x="312" y="2400" class="a"  >de</text>
<text x="348" y="2400" class="a"  >saída:</text>
<text x="0" y="2425" class="a"  >1</text>
<text x="24" y="2425" class="a"  >-</text>
<text x="48" y="2425" class="a"  >Binário</text>
<text x="0" y="2450" class="a"  >2</text>
<text x="24" y="2450" class="a"  >-</text>
<text x="48" y="2450" class="a"  >Octal</text>
<text x="0" y="2475" class="a"  >3</text>
<text x="24" y="2475" class="a"  >-</text>
<text x="48" y="2475" class="a"  >Decimal</text>
<text x="0" y="2500" class="a"  >4</text>
<text x="24" y="2500" class="a"  >-</text>
<text x="48" y="2500" class="a"  >Hexadecimal</text>
<text x="0" y="2525" class="a"  >0</text>
<text x="24" y="2525" class="a"  >-</text>
<text x="48" y="2525" class="a"  >Sair</text>
<text x="0" y="2550" class="a"  >Opção:</text>
<text x="84" y="2550" class="a"  >d</text>
<text x="0" y="2600" class="a"  >Digite</text>
<text x="84" y="2600" class="a"  >o</text>
<text x="108" y="2600" class="a"  >número</text>
<text x="192" y="2600" class="a"  >na</text>
<text x="228" y="2600" class="a"  >base</text>
<text x="288" y="2600" class="a"  >de</text>
<text x="324" y="2600" class="a"  >entrada:</text>
<text x="432" y="2600" class="a"  >101</text>
<text x="0" y="2625" class="a"  >Resultado:</text>
<text x="132" y="2625" class="b"  >5</text>
<text x="0" y="2675" class="a"  >Escolha</text>
<text x="96" y="2675" class="a"  >o</text>
<text x="120" y="2675" class="a"  >sistema</text>
<text x="216" y="2675" class="a"  >de</text>
<text x="252" y="2675" class="a"  >base</text>
<text x="312" y="2675" class="a"  >de</text>
<text x="348" y="2675" class="a"  >entrada:</text>
<text x="0" y="2700" class="a"  >1</text>
<text x="24" y="2700" class="a"  >-</text>
<text x="48" y="2700" class="a"  >Binário</text>
<text x="0" y="2725" class="a"  >2</text>
<text x="24" y="2725" class="a"  >-</text>
<text x="48" y="2725" class="a"  >Octal</text>
<text x="0" y="2750" class="a"  >3</text>
<text x="24" y="2750" class="a"  >-</text>
<text x="48" y="2750" class="a"  >Decimal</text>
<text x="0" y="2775" class="a"  >4</text>
<text x="24" y="2775" class="a"  >-</text>
<text x="48" y="2775" class="a"  >Hexadecimal</text>
<text x="0" y="2800" class="a"  >0</text>
<text x="24" y="2800" class="a"  >-</text>
<text x="48" y="2800" class="a"  >Sair</text>
<text x="0" y="2825" class="a"  >Opção:</text>
<text x="84" y="2825" class="a"  >h</text>
<text x="0" y="2875" class="a"  >Escolha</text>
<text x="96" y="2875" class="a"  >o</text>
<text x="120" y="2875" class="a"  >sistema</text>
<text x="216" y="2875" class="a"  >de</text>
<text x="252" y="2875" class="a"  >base</text>
<text x="312" y="2875" class="a"  >de</text>
<text x="348" y="2875" class="a"  >saída:</text>
<text x="0" y="2900" class="a"  >1</text>
<text x="24" y="2900" class="a"  >-</text>
<text x="48" y="2900" class="a"  >Binário</text>
<text x="0" y="2925" class="a"  >2</text>
<text x="24" y="2925" class="a"  >-</text>
<text x="48" y="2925" class="a"  >Octal</text>
<text x="0" y="2950" class="a"  >3</text>
<text x="24" y="2950" class="a"  >-</text>
<text x="48" y="2950" class="a"  >Decimal</text>
<text x="0" y="2975" class="a"  >4</text>
<text x="24" y="2975" class="a"  >-</text>
<text x="48" y="2975" class="a"  >Hexadecimal</text>
<text x="0" y="3000" class="a"  >0</text>
<text x="24" y="3000" class="a"  >-</text>
<text x="48" y="3000" class="a"  >Sair</text>
<text x="0" y="3025" class="a"  >Opção:</text>
<text x="84" y="3025" class="a"  >d</text>
<text x="0" y="3075" class="a"  >Digite</text>
<text x="84" y="3075" class="a"  >o</text>
<text x="108" y="3075" class="a"  >número</text>
<text x="192" y="3075" class="a"  >na</text>
<text x="228" y="3075" class="a"  >base</text>
<text x="288" y="3075" class="a"  >de</text>
<text x="324" y="3075" class="a"  >entrada:</text>
<text x="432" y="3075" class="a"  >fff</text>
<text x="0" y="3100" class="a"  >Resultado:</text>
<text x="132" y="3100" class="b"  >4095</text>
<text x="0" y="3150" class="a"  >Escolha</text>
<text x="96" y="3150" class="a"  >o</text>
<text x="120" y="3150" class="a"  >sistema</text>
<text x="216" y="3150" class="a"  >de</text>
<text x="252" y="3150" class="a"  >base</text>
<text x="312" y="3150" class="a"  >de</text>
<text x="348" y="3150" class="a"  >entrada:</text>
<text x="0" y="3175" class="a"  >1</text>
<text x="24" y="3175" class="a"  >-</text>
<text x="48" y="3175" class="a"  >Binário</text>
<text x="0" y="3200" class="a"  >2</text>
<text x="24" y="3200" class="a"  >-</text>
<text x="48" y="3200" class="a"  >Octal</text>
<text x="0" y="3225" class="a"  >3</text>
<text x="24" y="3225" class="a"  >-</text>
<text x="48" y="3225" class="a"  >Decimal</text>
<text x="0" y="3250" class="a"  >4</text>
<text x="24" y="3250" class="a"  >-</text>
<text x="48" y="3250" class="a"  >Hexadecimal</text>
<text x="0" y="3275" class="a"  >0</text>
<text x="24" y="3275" class="a"  >-</text>
<text x="48" y="3275" class="a"  >Sair</text>
<text x="0" y="3300" class="a"  >Opção:</text>
<text x="84" y="3300" class="a"  >0</text>
<text x="0" y="3325" class="a"  >Encerrando</text>
<text x="132" y="3325" class="a"  >o</text>
<text x="156" y="3325" class="a"  >programa.</text>
<text x="12" y="3350" class="a"  >$</text>
<text x="36" y="3350" class="a"  >exit</text>
</g>
</g>
</g>
</svg>
